<mxfile host="65bd71144e">
    <diagram id="eh4BhGm_1xsy3wQP3HV4" name="Homepagina">
        <mxGraphModel dx="480" dy="392" grid="1" gridSize="10" guides="1" tooltips="1" connect="1" arrows="1" fold="1" page="1" pageScale="1" pageWidth="827" pageHeight="1169" math="0" shadow="0">
            <root>
                <mxCell id="0"/>
                <mxCell id="1" parent="0"/>
                <mxCell id="4" value="" style="edgeStyle=none;html=1;" edge="1" parent="1" source="2" target="3">
                    <mxGeometry relative="1" as="geometry"/>
                </mxCell>
                <mxCell id="5" value="" style="edgeStyle=none;html=1;" edge="1" parent="1" source="2" target="3">
                    <mxGeometry relative="1" as="geometry"/>
                </mxCell>
                <mxCell id="7" value="" style="edgeStyle=none;html=1;" edge="1" parent="1" source="2" target="6">
                    <mxGeometry relative="1" as="geometry"/>
                </mxCell>
                <mxCell id="HITSadwMx7w3FziLqOWP-13" value="" style="edgeStyle=none;html=1;" edge="1" parent="1" source="2" target="HITSadwMx7w3FziLqOWP-12">
                    <mxGeometry relative="1" as="geometry"/>
                </mxCell>
                <mxCell id="HITSadwMx7w3FziLqOWP-21" value="" style="edgeStyle=none;html=1;" edge="1" parent="1" source="2" target="HITSadwMx7w3FziLqOWP-20">
                    <mxGeometry relative="1" as="geometry"/>
                </mxCell>
                <mxCell id="2" value="Homepagina" style="whiteSpace=wrap;html=1;" vertex="1" parent="1">
                    <mxGeometry x="220" y="20" width="120" height="60" as="geometry"/>
                </mxCell>
                <mxCell id="HITSadwMx7w3FziLqOWP-18" style="edgeStyle=none;html=1;entryX=0.75;entryY=0;entryDx=0;entryDy=0;" edge="1" parent="1" source="3" target="HITSadwMx7w3FziLqOWP-17">
                    <mxGeometry relative="1" as="geometry"/>
                </mxCell>
                <mxCell id="3" value="3-36 top stories" style="whiteSpace=wrap;html=1;" vertex="1" parent="1">
                    <mxGeometry x="120" y="219" width="120" height="60" as="geometry"/>
                </mxCell>
                <mxCell id="HITSadwMx7w3FziLqOWP-19" style="edgeStyle=none;html=1;entryX=0.25;entryY=0;entryDx=0;entryDy=0;" edge="1" parent="1" source="6" target="HITSadwMx7w3FziLqOWP-17">
                    <mxGeometry relative="1" as="geometry"/>
                </mxCell>
                <mxCell id="6" value="3-20 normal stories" style="whiteSpace=wrap;html=1;" vertex="1" parent="1">
                    <mxGeometry x="50" y="150" width="120" height="60" as="geometry"/>
                </mxCell>
                <mxCell id="HITSadwMx7w3FziLqOWP-16" value="" style="edgeStyle=none;html=1;" edge="1" parent="1" source="HITSadwMx7w3FziLqOWP-7" target="HITSadwMx7w3FziLqOWP-15">
                    <mxGeometry relative="1" as="geometry"/>
                </mxCell>
                <mxCell id="HITSadwMx7w3FziLqOWP-7" value="Selectiemenu voor categorieÃ«n" style="whiteSpace=wrap;html=1;" vertex="1" parent="1">
                    <mxGeometry x="420" y="140" width="120" height="60" as="geometry"/>
                </mxCell>
                <mxCell id="HITSadwMx7w3FziLqOWP-14" value="" style="edgeStyle=none;html=1;" edge="1" parent="1" source="HITSadwMx7w3FziLqOWP-12" target="HITSadwMx7w3FziLqOWP-7">
                    <mxGeometry relative="1" as="geometry"/>
                </mxCell>
                <mxCell id="HITSadwMx7w3FziLqOWP-12" value="Navigatie" style="whiteSpace=wrap;html=1;" vertex="1" parent="1">
                    <mxGeometry x="420" y="40" width="120" height="60" as="geometry"/>
                </mxCell>
                <mxCell id="HITSadwMx7w3FziLqOWP-15" value="Nieuwsberichten weergeven uit die categorie" style="whiteSpace=wrap;html=1;" vertex="1" parent="1">
                    <mxGeometry x="410" y="230" width="120" height="60" as="geometry"/>
                </mxCell>
                <mxCell id="HITSadwMx7w3FziLqOWP-17" value="Popup met het nieuws (of nieuwe pagina)" style="whiteSpace=wrap;html=1;" vertex="1" parent="1">
                    <mxGeometry x="50" y="320" width="120" height="60" as="geometry"/>
                </mxCell>
                <mxCell id="HITSadwMx7w3FziLqOWP-23" value="" style="edgeStyle=none;html=1;" edge="1" parent="1" source="HITSadwMx7w3FziLqOWP-20" target="HITSadwMx7w3FziLqOWP-22">
                    <mxGeometry relative="1" as="geometry"/>
                </mxCell>
                <mxCell id="HITSadwMx7w3FziLqOWP-20" value="Footer" style="whiteSpace=wrap;html=1;" vertex="1" parent="1">
                    <mxGeometry x="270" y="190" width="120" height="60" as="geometry"/>
                </mxCell>
                <mxCell id="HITSadwMx7w3FziLqOWP-22" value="(C) NYT en (C) Santos vdW" style="whiteSpace=wrap;html=1;" vertex="1" parent="1">
                    <mxGeometry x="270" y="330" width="120" height="60" as="geometry"/>
                </mxCell>
            </root>
        </mxGraphModel>
    </diagram>
</mxfile>